<svg xmlns="http://www.w3.org/2000/svg" version="1.1" xmlns:xlink="http://www.w3.org/1999/xlink" xmlns:svgjs="http://svgjs.dev/svgjs" width="1000" height="222" viewBox="0 0 1000 222"><g transform="matrix(1,0,0,1,-0.6060605777098544,0.02222787127011827)"><svg viewBox="0 0 396 88" data-background-color="#ffffff" preserveAspectRatio="xMidYMid meet" height="222" width="1000" xmlns="http://www.w3.org/2000/svg" xmlns:xlink="http://www.w3.org/1999/xlink"><g id="tight-bounds" transform="matrix(1,0,0,1,0.24000001122692538,-0.008811048071038385)"><svg viewBox="0 0 395.52 88.01762065920002" height="88.01762065920002" width="395.52"><g><svg viewBox="0 0 395.52 88.01762065920002" height="88.01762065920002" width="395.52"><g transform="matrix(1,0,0,1,0,54.39842065920001)"><svg viewBox="0 0 395.52 33.619200000000006" height="33.619200000000006" width="395.52"><g><svg viewBox="0 0 395.52 33.619200000000006" height="33.619200000000006" width="395.52"><g><svg viewBox="0 0 395.52 33.619200000000006" height="33.619200000000006" width="395.52"><g transform="matrix(1,0,0,1,0,0)"><svg width="395.52" viewBox="1.850000023841858 -35.349998474121094 419.9700012207031 35.69999694824219" height="33.619200000000006" data-palette-color="#0b74a2"><path d="M16.65-34.95L20.15-34.95 20.15-8.5Q20.15-4.5 17.7-2.08 15.25 0.35 11.15 0.35L11.15 0.35Q6.9 0.35 4.38-2.23 1.85-4.8 1.85-9.2L1.85-9.2 5.4-9.2Q5.45-6.35 6.83-4.55 8.2-2.75 11.15-2.75L11.15-2.75Q13.95-2.75 15.3-4.4 16.65-6.05 16.65-8.5L16.65-8.5 16.65-34.95ZM52.25 0L49.2-8.3 33.3-8.3 30.25 0 26.55 0 39.3-34.5 43.25-34.5 55.95 0 52.25 0ZM34.35-11.2L48.15-11.2 41.25-30.1 34.35-11.2ZM84-34.95L87.5-34.95 87.5 0 84 0 84-16.35 65.05-16.35 65.05 0 61.55 0 61.55-34.95 65.05-34.95 65.05-19.25 84-19.25 84-34.95ZM118.79 0L115.74-8.3 99.84-8.3 96.79 0 93.09 0 105.84-34.5 109.79-34.5 122.49 0 118.79 0ZM100.89-11.2L114.69-11.2 107.79-30.1 100.89-11.2ZM154.44-34.95L154.44 0 150.94 0 131.59-29.4 131.59 0 128.09 0 128.09-34.95 131.59-34.95 150.94-5.6 150.94-34.95 154.44-34.95ZM193.99-24.75L189.89-24.75Q188.39-28.2 185.31-30.18 182.24-32.15 178.09-32.15L178.09-32.15Q174.19-32.15 171.09-30.35 167.99-28.55 166.19-25.23 164.39-21.9 164.39-17.5L164.39-17.5Q164.39-13.1 166.19-9.75 167.99-6.4 171.09-4.6 174.19-2.8 178.09-2.8L178.09-2.8Q181.74-2.8 184.66-4.38 187.59-5.95 189.36-8.88 191.14-11.8 191.39-15.7L191.39-15.7 176.69-15.7 176.69-18.55 195.09-18.55 195.09-16Q194.84-11.4 192.59-7.68 190.34-3.95 186.56-1.8 182.79 0.35 178.09 0.35L178.09 0.35Q173.24 0.35 169.29-1.93 165.34-4.2 163.06-8.28 160.79-12.35 160.79-17.5L160.79-17.5Q160.79-22.65 163.06-26.73 165.34-30.8 169.29-33.08 173.24-35.35 178.09-35.35L178.09-35.35Q183.69-35.35 187.89-32.55 192.09-29.75 193.99-24.75L193.99-24.75ZM201.49-34.95L204.99-34.95 204.99 0 201.49 0 201.49-34.95ZM235.73 0L231.53 0 222.88-14.6 216.43-14.6 216.43 0 212.93 0 212.93-34.95 223.43-34.95Q229.28-34.95 232.31-32.15 235.33-29.35 235.33-24.8L235.33-24.8Q235.33-21 233.16-18.32 230.98-15.65 226.73-14.85L226.73-14.85 235.73 0ZM216.43-32L216.43-17.45 223.48-17.45Q227.58-17.45 229.66-19.45 231.73-21.45 231.73-24.8L231.73-24.8Q231.73-28.25 229.73-30.13 227.73-32 223.43-32L223.43-32 216.43-32ZM268.63-34.95L272.13-34.95 272.13-8.5Q272.13-4.5 269.68-2.08 267.23 0.35 263.13 0.35L263.13 0.35Q258.88 0.35 256.35-2.23 253.83-4.8 253.83-9.2L253.83-9.2 257.38-9.2Q257.43-6.35 258.8-4.55 260.18-2.75 263.13-2.75L263.13-2.75Q265.93-2.75 267.28-4.4 268.63-6.05 268.63-8.5L268.63-8.5 268.63-34.95ZM280.78-34.95L284.28-34.95 284.28-12.95Q284.28-7.75 286.75-5.25 289.23-2.75 293.53-2.75L293.53-2.75Q297.82-2.75 300.25-5.23 302.68-7.7 302.68-12.95L302.68-12.95 302.68-34.95 306.18-34.95 306.18-13Q306.18-6.35 302.65-3 299.13 0.35 293.48 0.35L293.48 0.35Q287.82 0.35 284.3-3 280.78-6.35 280.78-13L280.78-13 280.78-34.95ZM344.37-34.5L348.12-34.5 348.12 0 344.62 0 344.62-27.55 332.32 0 329.77 0 317.47-27.45 317.47 0 313.97 0 313.97-34.5 317.67-34.5 331.02-4.6 344.37-34.5ZM371.77 0.35Q366.92 0.35 362.97-1.93 359.02-4.2 356.75-8.28 354.47-12.35 354.47-17.5L354.47-17.5Q354.47-22.65 356.75-26.73 359.02-30.8 362.97-33.08 366.92-35.35 371.77-35.35L371.77-35.35Q376.67-35.35 380.62-33.08 384.57-30.8 386.82-26.73 389.07-22.65 389.07-17.5L389.07-17.5Q389.07-12.35 386.82-8.28 384.57-4.2 380.62-1.93 376.67 0.35 371.77 0.35L371.77 0.35ZM371.77-2.7Q375.67-2.7 378.77-4.5 381.87-6.3 383.67-9.68 385.47-13.05 385.47-17.5L385.47-17.5Q385.47-21.95 383.67-25.3 381.87-28.65 378.77-30.45 375.67-32.25 371.77-32.25L371.77-32.25Q367.87-32.25 364.77-30.45 361.67-28.65 359.87-25.3 358.07-21.95 358.07-17.5L358.07-17.5Q358.07-13.05 359.87-9.68 361.67-6.3 364.77-4.5 367.87-2.7 371.77-2.7L371.77-2.7ZM421.82-34.95L421.82 0 418.32 0 398.97-29.4 398.97 0 395.47 0 395.47-34.95 398.97-34.95 418.32-5.6 418.32-34.95 421.82-34.95Z" opacity="1" transform="matrix(1,0,0,1,0,0)" fill="#0b74a2" class="undefined-text-0" data-fill-palette-color="primary" id="text-0"></path></svg></g></svg></g></svg></g></svg></g><g transform="matrix(1,0,0,1,167.91433296020642,0)"><svg viewBox="0 0 59.69133407958716 46.46173440000001" height="46.46173440000001" width="59.69133407958716"><g><svg xmlns="http://www.w3.org/2000/svg" xmlns:xlink="http://www.w3.org/1999/xlink" version="1.1" x="8" y="0" viewBox="14.562999725341797 12.315999984741211 70.87399291992188 75.36800384521484" enable-background="new 0 0 100 100" xml:space="preserve" height="46.46173440000001" width="43.69133407958716" class="icon-icon-0" data-fill-palette-color="accent" id="icon-0"><path d="M68.475 12.316l-6.903 18.526v18.588c1.769 0.65 3.038 2.336 3.038 4.33 0 2.557-2.073 4.629-4.629 4.629-2.557 0-4.629-2.072-4.629-4.629 0-2.101 1.409-3.854 3.327-4.42V30.329H58.7l-0.021-0.009 6.709-18.004h-7.515l-9.175 22.734v25.29c2.068 0.462 3.616 2.302 3.616 4.51 0 2.556-2.072 4.628-4.629 4.628-2.556 0-4.628-2.072-4.628-4.628 0-1.836 1.076-3.407 2.625-4.155h-0.026V34.581v-0.12l0.033-0.082 8.904-22.063H44.518l-9.175 22.734v35.372c1.481 0.771 2.504 2.303 2.504 4.089 0 2.557-2.072 4.629-4.629 4.629-2.556 0-4.628-2.072-4.628-4.629 0-2.242 1.594-4.11 3.711-4.536V34.581v-0.12l0.032-0.082 8.905-22.063H14.563v75.367h7.98V26.045c-1.835-0.607-3.168-2.315-3.168-4.354 0-2.545 2.063-4.606 4.607-4.606s4.607 2.062 4.607 4.606c0 1.891-1.141 3.51-2.769 4.221v61.772h32.713V73.793h0.029l15.158-15.392V37.375c-1.837-0.613-3.169-2.328-3.169-4.37 0-2.557 2.072-4.629 4.629-4.629 2.556 0 4.628 2.072 4.628 4.629 0 2.053-1.346 3.772-3.195 4.379v22.145l0.029 0.029L61.427 75.009v12.675h10.704v-5.62c-1.973-0.53-3.432-2.313-3.432-4.452 0-2.556 2.073-4.628 4.629-4.628 2.557 0 4.629 2.072 4.629 4.628 0 2.09-1.394 3.835-3.295 4.41v5.662h10.775V12.316H68.475z" fill="#0b74a2" data-fill-palette-color="accent"></path></svg></g></svg></g><g><rect width="167.91433296020642" height="3.0318141510144008" y="42.42992024898561" x="227.6056670397936" fill="#0b74a2" data-fill-palette-color="accent"></rect><rect width="167.91433296020642" height="3.0318141510144008" y="42.42992024898561" x="0" fill="#0b74a2" data-fill-palette-color="accent"></rect><rect width="167.91433296020642" height="3.0318141510144008" y="36.36629194695681" x="227.6056670397936" fill="#0b74a2" data-fill-palette-color="accent"></rect><rect width="167.91433296020642" height="3.0318141510144008" y="36.36629194695681" x="0" fill="#0b74a2" data-fill-palette-color="accent"></rect></g></svg></g><defs></defs></svg><rect width="395.52" height="88.01762065920002" fill="none" stroke="none" visibility="hidden"></rect></g></svg></g></svg>